<svg xmlns="http://www.w3.org/2000/svg" width="1200" height="390" viewBox="0 0 1200 390">
  <defs>
    <linearGradient id="g" x1="0" x2="1">
      <stop stop-color="#0BBE00"/><stop offset=".52" stop-color="#5BCDEC"/><stop offset="1" stop-color="#FF4ECD"/>
    </linearGradient>
    <filter id="glow"><feGaussianBlur stdDeviation="2" result="b"/><feMerge><feMergeNode in="b"/><feMergeNode in="SourceGraphic"/></feMerge></filter>
  </defs>
  <rect x="1" y="1" width="1198" height="388" rx="18" fill="#0D1117" stroke="#30363D"/>
  <text x="42" y="44" fill="#8B949E" font-family="ui-monospace,SFMono-Regular,Menlo,Consolas,monospace" font-size="12" letter-spacing="1.7">VERIFICATION SOURCE: EXTREMELY TRUSTWORTHY</text>
  <text x="1158" y="44" text-anchor="end" fill="#0BBE00" font-family="ui-monospace,SFMono-Regular,Menlo,Consolas,monospace" font-size="11">6 / 6 CERTIFIED</text>

  <!-- row 1 -->
  <g transform="translate(42 78)">
    <rect width="350" height="112" rx="14" fill="#10161D" stroke="#30363D"/>
    <path d="M49 37c-9-12-28-3-28 12 0 15 28 31 28 31s28-16 28-31c0-15-19-24-28-12z" fill="none" stroke="#FF4ECD" stroke-width="3"/>
    <text x="97" y="44" fill="#C9D1D9" font-family="ui-monospace,SFMono-Regular,Menlo,Consolas,monospace" font-size="18" font-weight="700">BUILT WITH</text>
    <text x="97" y="70" fill="#FF4ECD" font-family="ui-monospace,SFMono-Regular,Menlo,Consolas,monospace" font-size="21" font-weight="700">LOVE</text>
    <text x="22" y="96" fill="#8B949E" font-family="ui-monospace,SFMono-Regular,Menlo,Consolas,monospace" font-size="10">certificate.id = 0xLOVE</text>
  </g>

  <g transform="translate(425 78)">
    <rect width="350" height="112" rx="14" fill="#10161D" stroke="#30363D"/>
    <path d="M20 39h52v20c0 16-12 25-26 25S20 75 20 59V39zM72 45h8c13 0 13 20 0 20h-8M31 24c0 6 6 6 6 12M47 20c0 6 6 6 6 12M61 24c0 6 6 6 6 12" fill="none" stroke="#F5C451" stroke-width="3" stroke-linecap="round"/>
    <text x="105" y="44" fill="#C9D1D9" font-family="ui-monospace,SFMono-Regular,Menlo,Consolas,monospace" font-size="18" font-weight="700">POWERED BY</text>
    <text x="105" y="70" fill="#F5C451" font-family="ui-monospace,SFMono-Regular,Menlo,Consolas,monospace" font-size="21" font-weight="700">COFFEE</text>
    <text x="22" y="96" fill="#8B949E" font-family="ui-monospace,SFMono-Regular,Menlo,Consolas,monospace" font-size="10">fuel.level &gt; production</text>
  </g>

  <g transform="translate(808 78)">
    <rect width="350" height="112" rx="14" fill="#10161D" stroke="#30363D"/>
    <rect x="21" y="28" width="42" height="42" rx="7" fill="none" stroke="#5BCDEC" stroke-width="3"/>
    <rect x="36" y="42" width="42" height="42" rx="7" fill="none" stroke="#5BCDEC" stroke-width="3"/>
    <text x="105" y="44" fill="#C9D1D9" font-family="ui-monospace,SFMono-Regular,Menlo,Consolas,monospace" font-size="18" font-weight="700">CTRL+C</text>
    <text x="105" y="70" fill="#5BCDEC" font-family="ui-monospace,SFMono-Regular,Menlo,Consolas,monospace" font-size="21" font-weight="700">CTRL+V</text>
    <text x="22" y="96" fill="#8B949E" font-family="ui-monospace,SFMono-Regular,Menlo,Consolas,monospace" font-size="10">reuse.engine = enabled</text>
  </g>

  <!-- row 2 -->
  <g transform="translate(42 218)">
    <rect width="350" height="112" rx="14" fill="#10161D" stroke="#30363D"/>
    <path d="M27 58l17-25 17 25M44 33v-9M25 64h38M34 72h20" fill="none" stroke="#0BBE00" stroke-width="3" stroke-linecap="round" stroke-linejoin="round"/>
    <text x="97" y="44" fill="#C9D1D9" font-family="ui-monospace,SFMono-Regular,Menlo,Consolas,monospace" font-size="16" font-weight="700">NOT A BUG</text>
    <text x="97" y="70" fill="#0BBE00" font-family="ui-monospace,SFMono-Regular,Menlo,Consolas,monospace" font-size="19" font-weight="700">A FEATURE</text>
    <text x="22" y="96" fill="#8B949E" font-family="ui-monospace,SFMono-Regular,Menlo,Consolas,monospace" font-size="10">severity = intentional</text>
  </g>

  <g transform="translate(425 218)">
    <rect width="350" height="112" rx="14" fill="#10161D" stroke="#30363D"/>
    <rect x="20" y="25" width="62" height="44" rx="5" fill="none" stroke="#5BCDEC" stroke-width="3"/>
    <path d="M31 81h40M51 69v12M30 41l10 9-10 9M48 59h18" fill="none" stroke="#5BCDEC" stroke-width="3" stroke-linecap="round" stroke-linejoin="round"/>
    <text x="105" y="44" fill="#C9D1D9" font-family="ui-monospace,SFMono-Regular,Menlo,Consolas,monospace" font-size="16" font-weight="700">WORKS ON</text>
    <text x="105" y="70" fill="#5BCDEC" font-family="ui-monospace,SFMono-Regular,Menlo,Consolas,monospace" font-size="19" font-weight="700">MY MACHINE</text>
    <text x="22" y="96" fill="#8B949E" font-family="ui-monospace,SFMono-Regular,Menlo,Consolas,monospace" font-size="10">environment = perfect</text>
  </g>

  <g transform="translate(808 218)">
    <rect width="350" height="112" rx="14" fill="#10161D" stroke="#30363D"/>
    <circle cx="50" cy="49" r="28" fill="none" stroke="#FF4ECD" stroke-width="3"/>
    <path d="M37 49l9 9 18-21" fill="none" stroke="#FF4ECD" stroke-width="4" stroke-linecap="round" stroke-linejoin="round"/>
    <text x="105" y="44" fill="#C9D1D9" font-family="ui-monospace,SFMono-Regular,Menlo,Consolas,monospace" font-size="16" font-weight="700">APPROVED BY</text>
    <text x="105" y="70" fill="#FF4ECD" font-family="ui-monospace,SFMono-Regular,Menlo,Consolas,monospace" font-size="19" font-weight="700">MY MOM</text>
    <text x="22" y="96" fill="#8B949E" font-family="ui-monospace,SFMono-Regular,Menlo,Consolas,monospace" font-size="10">authority = maximum</text>
  </g>

  <rect x="42" y="356" width="1116" height="5" rx="2.5" fill="url(#g)" opacity=".8"/>
</svg>